<svg width="24" height="24" viewBox="0 0 24 24" fill="none" xmlns="http://www.w3.org/2000/svg">
<path d="M6 16.7934V12.476C6 10.7585 6.68482 9.11127 7.90381 7.89678C9.12279 6.68229 10.7761 6 12.5 6C14.2239 6 15.8772 6.68229 17.0962 7.89678C18.3152 9.11127 19 10.7585 19 12.476V16.7934" stroke="white" stroke-width="1.5" stroke-linecap="round" stroke-linejoin="round"/>
<path d="M19 17.5131C19 17.8948 18.8478 18.2608 18.5769 18.5307C18.306 18.8006 17.9386 18.9522 17.5556 18.9522H16.8333C16.4502 18.9522 16.0828 18.8006 15.812 18.5307C15.5411 18.2608 15.3889 17.8948 15.3889 17.5131V15.3544C15.3889 14.9727 15.5411 14.6067 15.812 14.3368C16.0828 14.0669 16.4502 13.9153 16.8333 13.9153H19V17.5131ZM6 17.5131C6 17.8948 6.15218 18.2608 6.42307 18.5307C6.69395 18.8006 7.06135 18.9522 7.44444 18.9522H8.16667C8.54976 18.9522 8.91716 18.8006 9.18804 18.5307C9.45893 18.2608 9.61111 17.8948 9.61111 17.5131V15.3544C9.61111 14.9727 9.45893 14.6067 9.18804 14.3368C8.91716 14.0669 8.54976 13.9153 8.16667 13.9153H6V17.5131Z" stroke="white" stroke-width="1.5" stroke-linecap="round" stroke-linejoin="round"/>
</svg>
