<svg width="24" height="24" viewBox="0 0 24 24" fill="none" xmlns="http://www.w3.org/2000/svg">
<path d="M5 16.5V11.5C5 9.51089 5.79018 7.60324 7.1967 6.19671C8.60322 4.79019 10.5109 4.00002 12.5 4.00002C14.4891 4.00002 16.3968 4.79019 17.8033 6.19671C19.2098 7.60324 20 9.51089 20 11.5V16.5" stroke="#393F44" stroke-width="1.5" stroke-linecap="round" stroke-linejoin="round"/>
<path d="M20 17.3333C20 17.7754 19.8244 18.1993 19.5118 18.5118C19.1993 18.8244 18.7754 19 18.3333 19H17.5C17.058 19 16.634 18.8244 16.3215 18.5118C16.0089 18.1993 15.8333 17.7754 15.8333 17.3333V14.8333C15.8333 14.3913 16.0089 13.9674 16.3215 13.6548C16.634 13.3423 17.058 13.1667 17.5 13.1667H20V17.3333ZM5 17.3333C5 17.7754 5.17559 18.1993 5.48816 18.5118C5.80072 18.8244 6.22464 19 6.66667 19H7.5C7.94203 19 8.36595 18.8244 8.67851 18.5118C8.99107 18.1993 9.16667 17.7754 9.16667 17.3333V14.8333C9.16667 14.3913 8.99107 13.9674 8.67851 13.6548C8.36595 13.3423 7.94203 13.1667 7.5 13.1667H5V17.3333Z" stroke="#393F44" stroke-width="1.5" stroke-linecap="round" stroke-linejoin="round"/>
</svg>
