<svg width="40" height="40" viewBox="0 0 40 40" fill="none" xmlns="http://www.w3.org/2000/svg">
<path d="M30.9711 31.5925V28.9711C30.9711 27.5807 30.4187 26.2471 29.4355 25.2639C28.4523 24.2807 27.1188 23.7284 25.7283 23.7284H15.2428C13.8523 23.7284 12.5188 24.2807 11.5356 25.2639C10.5524 26.2471 10 27.5807 10 28.9711V31.5925" fill="white"/>
<path d="M30.9711 31.5925V28.9711C30.9711 27.5807 30.4187 26.2471 29.4355 25.2639C28.4523 24.2807 27.1188 23.7284 25.7283 23.7284H15.2428C13.8523 23.7284 12.5188 24.2807 11.5356 25.2639C10.5524 26.2471 10 27.5807 10 28.9711V31.5925" stroke="#393F44" stroke-width="1.2" stroke-linecap="round" stroke-linejoin="round"/>
<path d="M20.4857 18.4856C23.3812 18.4856 25.7285 16.1383 25.7285 13.2428C25.7285 10.3473 23.3812 8.00004 20.4857 8.00004C17.5902 8.00004 15.2429 10.3473 15.2429 13.2428C15.2429 16.1383 17.5902 18.4856 20.4857 18.4856Z" fill="#77ABF8" stroke="#393F44" stroke-width="1.2" stroke-linecap="round" stroke-linejoin="round"/>
</svg>
