<svg width="14" height="14" viewBox="0 0 14 14" fill="none" xmlns="http://www.w3.org/2000/svg">
<g clip-path="url(#clip0_1_1675)">
<path d="M12.9115 7.48143C12.9203 7.36974 12.8862 7.22782 12.8019 7.11217C12.7146 6.99248 12.573 6.90059 12.3749 6.90059C12.0944 6.90059 11.8623 7.11583 11.8394 7.39491L11.8394 7.39497C11.8291 7.52143 11.8143 7.64668 11.7948 7.77013C11.4261 10.0854 9.41809 11.8583 6.99885 11.8583C5.32842 11.8583 3.85367 11.0131 2.97973 9.72746L3.95677 9.72501L12.9115 7.48143ZM12.9115 7.48143C12.9031 7.58864 12.8912 7.69496 12.877 7.80029L12.8769 7.80027L12.8723 7.83292C12.4676 10.7136 9.9906 12.9333 6.99885 12.9333C4.99188 12.9333 3.21655 11.9345 2.14304 10.408M12.9115 7.48143L2.14304 10.408M2.14304 10.408L2.14169 11.5494L2.14304 10.408ZM11.8541 3.59432C10.7806 2.06789 9.00525 1.06901 6.99827 1.06901C4.04094 1.06901 1.58705 3.23708 1.13966 6.06857L1.13448 6.10083L1.1343 6.10082C1.11357 6.23879 1.09695 6.37878 1.08567 6.52075L1.17634 6.52796L1.08567 6.52075C1.07679 6.63246 1.11092 6.77447 1.19525 6.89017C1.28248 7.00987 1.42414 7.10176 1.62227 7.10176C1.90271 7.10176 2.13479 6.88652 2.15769 6.60743L2.15771 6.60709C2.17028 6.44713 2.19085 6.28946 2.21884 6.13463L2.21885 6.1346C2.62809 3.86664 4.6133 2.14401 6.99827 2.14401C8.6687 2.14401 10.1434 2.98928 11.0174 4.27489L10.0404 4.27734C10.0403 4.27734 10.0403 4.27734 10.0403 4.27734L10.0401 4.27734L10.0404 4.37734C9.79885 4.37734 9.60285 4.57334 9.60285 4.81484C9.60285 5.05634 9.79885 5.25234 10.0404 5.25234H12.3929C12.6344 5.25234 12.8304 5.05634 12.8304 4.81484V2.45292C12.8304 2.21142 12.6344 2.01542 12.3929 2.01542L11.8541 3.59432ZM11.8541 3.59432L11.8554 2.45292M11.8541 3.59432L11.8554 2.45292M11.8554 2.45292V2.4528V2.45292ZM1.60419 12.0869C1.9008 12.0869 2.14165 11.8469 2.14169 11.5495L3.95702 9.72501C4.25363 9.72487 4.49427 9.48415 4.49427 9.18751C4.49427 8.89078 4.2535 8.65001 3.95677 8.65001H1.60419C1.30746 8.65001 1.06669 8.89078 1.06669 9.18751V11.5494C1.06669 11.8462 1.30746 12.0869 1.60419 12.0869Z" fill="#BFC3C7" stroke="#BFC3C7" stroke-width="0.2"/>
</g>
<defs>
<clipPath id="clip0_1_1675">
<rect width="14" height="14" fill="white"/>
</clipPath>
</defs>
</svg>
