<svg width="24" height="24" viewBox="0 0 24 24" fill="none" xmlns="http://www.w3.org/2000/svg">
<path d="M18.4 7.42224H4.71111C3.76609 7.42224 3 8.18833 3 9.13335V17.6889C3 18.6339 3.76609 19.4 4.71111 19.4H18.4C19.345 19.4 20.1111 18.6339 20.1111 17.6889V9.13335C20.1111 8.18833 19.345 7.42224 18.4 7.42224Z" stroke="#393F44" stroke-width="1.5" stroke-linecap="round" stroke-linejoin="round"/>
<path d="M14.9777 19.4V5.71111C14.9777 5.2573 14.7975 4.82207 14.4766 4.50117C14.1557 4.18028 13.7204 4 13.2666 4H9.84441C9.3906 4 8.95537 4.18028 8.63447 4.50117C8.31358 4.82207 8.1333 5.2573 8.1333 5.71111V19.4" stroke="#393F44" stroke-width="1.5" stroke-linecap="round" stroke-linejoin="round"/>
</svg>
