<svg width="15" height="15" viewBox="0 0 15 15" fill="none" xmlns="http://www.w3.org/2000/svg">
<path d="M7.37622 13.7524C10.8977 13.7524 13.7524 10.8977 13.7524 7.37622C13.7524 3.85473 10.8977 1 7.37622 1C3.85473 1 1 3.85473 1 7.37622C1 10.8977 3.85473 13.7524 7.37622 13.7524Z" stroke="#BFC3C7" stroke-linecap="round" stroke-linejoin="round"/>
<path d="M5.52057 5.46337C5.67048 5.03723 5.96636 4.67789 6.35582 4.449C6.74529 4.22011 7.20319 4.13644 7.64843 4.21281C8.09367 4.28918 8.49751 4.52066 8.78843 4.86626C9.07935 5.21185 9.23858 5.64925 9.23791 6.10099C9.23791 7.37624 7.32504 8.01386 7.32504 8.01386" stroke="#BFC3C7" stroke-linecap="round" stroke-linejoin="round"/>
<path d="M7.37616 10.5643H7.38254" stroke="#BFC3C7" stroke-linecap="round" stroke-linejoin="round"/>
</svg>
