<svg width="46" height="46" viewBox="0 0 46 46" fill="none" xmlns="http://www.w3.org/2000/svg">
<circle cx="23" cy="23" r="23" fill="#F5F8FD"/>
<path d="M12 9.14468H35.7141V32.6979H12V9.14468Z" fill="white" fill-opacity="0.01"/>
<path d="M9 29.1855V17.166H14.1133C16.8027 17.166 18.5625 18.8511 18.5625 21.3828C18.5625 23.9561 16.7529 25.5747 14.0137 25.5664H12.1543V29.1855H9ZM12.1543 23.1094H13.3828C14.5698 23.1011 15.2671 22.437 15.2588 21.3828C15.2671 20.3369 14.5698 19.6978 13.3828 19.6895H12.1543V23.1094Z" fill="white"/>
<path d="M19.4676 29.1855V26.9111L23.9334 23.1592C24.8465 22.3872 25.4027 21.8228 25.411 20.9512C25.4027 20.0132 24.7386 19.4404 23.8172 19.4404C22.8875 19.4404 22.2484 20.0298 22.2567 21.0508H19.2518C19.2435 18.5439 21.0531 17 23.8172 17C26.6644 17 28.4823 18.4692 28.4823 20.6855C28.4823 22.0801 27.7933 23.2505 25.0789 25.5332L23.867 26.5791V26.6455H28.6151V29.1855H19.4676Z" fill="white"/>
<path d="M29.7692 29.1855V17.166H34.8825C37.572 17.166 39.3317 18.8511 39.3317 21.3828C39.3317 23.9561 37.5221 25.5747 34.7829 25.5664H32.9235V29.1855H29.7692ZM32.9235 23.1094H34.152C35.339 23.1011 36.0363 22.437 36.028 21.3828C36.0363 20.3369 35.339 19.6978 34.152 19.6895H32.9235V23.1094Z" fill="white"/>
<path d="M9 29.1855V17.166H14.1133C16.8027 17.166 18.5625 18.8511 18.5625 21.3828C18.5625 23.9561 16.7529 25.5747 14.0137 25.5664H12.1543V29.1855H9ZM12.1543 23.1094H13.3828C14.5698 23.1011 15.2671 22.437 15.2588 21.3828C15.2671 20.3369 14.5698 19.6978 13.3828 19.6895H12.1543V23.1094Z" stroke="black" stroke-linecap="round" stroke-linejoin="round"/>
<path d="M19.4676 29.1855V26.9111L23.9334 23.1592C24.8465 22.3872 25.4027 21.8228 25.411 20.9512C25.4027 20.0132 24.7386 19.4404 23.8172 19.4404C22.8875 19.4404 22.2484 20.0298 22.2567 21.0508H19.2518C19.2435 18.5439 21.0531 17 23.8172 17C26.6644 17 28.4823 18.4692 28.4823 20.6855C28.4823 22.0801 27.7933 23.2505 25.0789 25.5332L23.867 26.5791V26.6455H28.6151V29.1855H19.4676Z" stroke="black" stroke-linecap="round" stroke-linejoin="round"/>
<path d="M29.7692 29.1855V17.166H34.8825C37.572 17.166 39.3317 18.8511 39.3317 21.3828C39.3317 23.9561 37.5221 25.5747 34.7829 25.5664H32.9235V29.1855H29.7692ZM32.9235 23.1094H34.152C35.339 23.1011 36.0363 22.437 36.028 21.3828C36.0363 20.3369 35.339 19.6978 34.152 19.6895H32.9235V23.1094Z" stroke="black" stroke-linecap="round" stroke-linejoin="round"/>
</svg>
