<svg width="24" height="24" viewBox="0 0 24 24" fill="none" xmlns="http://www.w3.org/2000/svg">
<path d="M15.2513 18.5016V17.0014C15.2513 16.2056 14.9352 15.4425 14.3725 14.8798C13.8098 14.3171 13.0467 14.001 12.251 14.001H7.00035C6.2046 14.001 5.44145 14.3171 4.87878 14.8798C4.31611 15.4425 4 16.2056 4 17.0014V18.5016" stroke="#393F44" stroke-width="1.5" stroke-linecap="round" stroke-linejoin="round"/>
<path d="M9.62559 11.0007C11.2826 11.0007 12.6259 9.65739 12.6259 8.00035C12.6259 6.3433 11.2826 5 9.62559 5C7.96854 5 6.62524 6.3433 6.62524 8.00035C6.62524 9.65739 7.96854 11.0007 9.62559 11.0007Z" stroke="#393F44" stroke-width="1.5" stroke-linecap="round" stroke-linejoin="round"/>
<path d="M19 6V12" stroke="#393F44" stroke-width="1.5" stroke-linecap="round" stroke-linejoin="round"/>
<path d="M22 9H16" stroke="#393F44" stroke-width="1.5" stroke-linecap="round" stroke-linejoin="round"/>
</svg>
