<svg width="40" height="40" viewBox="0 0 40 40" fill="none" xmlns="http://www.w3.org/2000/svg">
<path d="M25.5 7H28.75C29.612 7 30.4386 7.30436 31.0481 7.84614C31.6576 8.38791 32 9.12271 32 9.88889V30.1111C32 30.8773 31.6576 31.6121 31.0481 32.1539C30.4386 32.6956 29.612 33 28.75 33H9.25C8.38805 33 7.5614 32.6956 6.9519 32.1539C6.34241 31.6121 6 30.8773 6 30.1111V9.88889C6 9.12271 6.34241 8.38791 6.9519 7.84614C7.5614 7.30436 8.38805 7 9.25 7H12.5" stroke="#393F44" stroke-width="1.2" stroke-linecap="round" stroke-linejoin="round"/>
<path d="M23.875 4H14.125C13.2275 4 12.5 4.72754 12.5 5.625V8.875C12.5 9.77246 13.2275 10.5 14.125 10.5H23.875C24.7725 10.5 25.5 9.77246 25.5 8.875V5.625C25.5 4.72754 24.7725 4 23.875 4Z" stroke="#393F44" stroke-width="1.2" stroke-linecap="round" stroke-linejoin="round"/>
<path d="M24.8889 35.7778C29.7981 35.7778 33.7778 31.7981 33.7778 26.8889C33.7778 21.9797 29.7981 18 24.8889 18C19.9797 18 16 21.9797 16 26.8889C16 31.7981 19.9797 35.7778 24.8889 35.7778Z" fill="white" stroke="#393F44" stroke-width="1.2" stroke-linecap="round" stroke-linejoin="round"/>
<path d="M34 36.0002L31.1665 33.1667" stroke="#393F44" stroke-width="1.2" stroke-linecap="round" stroke-linejoin="round"/>
<path d="M24 22H28.9091L25.9091 25.85H30L23.4545 33L24.8182 27.775H21L24 22Z" fill="#77ABF8" stroke="#393F44" stroke-width="1.2" stroke-linecap="round" stroke-linejoin="round"/>
</svg>
