<svg width="24" height="24" viewBox="0 0 24 24" fill="none" xmlns="http://www.w3.org/2000/svg">
<path d="M16.7847 8.71367C18.0863 8.71367 19.1415 7.65848 19.1415 6.35683C19.1415 5.05519 18.0863 4 16.7847 4C15.483 4 14.4279 5.05519 14.4279 6.35683C14.4279 7.65848 15.483 8.71367 16.7847 8.71367Z" stroke="#222222" stroke-width="1.5" stroke-linecap="round" stroke-linejoin="round"/>
<path d="M7.35683 14.2129C8.65848 14.2129 9.71367 13.1577 9.71367 11.8561C9.71367 10.5545 8.65848 9.49927 7.35683 9.49927C6.05519 9.49927 5 10.5545 5 11.8561C5 13.1577 6.05519 14.2129 7.35683 14.2129Z" stroke="#222222" stroke-width="1.5" stroke-linecap="round" stroke-linejoin="round"/>
<path d="M16.7846 19.712C18.0862 19.712 19.1414 18.6568 19.1414 17.3551C19.1414 16.0535 18.0862 14.9983 16.7846 14.9983C15.4829 14.9983 14.4277 16.0535 14.4277 17.3551C14.4277 18.6568 15.4829 19.712 16.7846 19.712Z" stroke="#222222" stroke-width="1.5" stroke-linecap="round" stroke-linejoin="round"/>
<path d="M9.3916 13.0425L14.7573 16.1692" stroke="#222222" stroke-width="1.5" stroke-linecap="round" stroke-linejoin="round"/>
<path d="M14.7495 7.54309L9.3916 10.6698" stroke="#222222" stroke-width="1.5" stroke-linecap="round" stroke-linejoin="round"/>
</svg>
