<svg width="46" height="46" viewBox="0 0 46 46" fill="none" xmlns="http://www.w3.org/2000/svg">
<circle cx="23" cy="23" r="23" fill="#F5F8FD"/>
<path d="M12 10.2095H35.7141V33.7627H12V10.2095Z" fill="white" fill-opacity="0.01"/>
<path d="M13.9767 25.421V28.8558C13.9767 30.2108 16.1886 31.3093 18.9171 31.3093C21.6456 31.3093 23.8575 30.2108 23.8575 28.8558C23.8575 28.0532 23.8575 25.421 23.8575 25.421" fill="white"/>
<path d="M13.9767 25.421V28.8558C13.9767 30.2108 16.1886 31.3093 18.9171 31.3093C21.6456 31.3093 23.8575 30.2108 23.8575 28.8558C23.8575 28.0532 23.8575 25.421 23.8575 25.421" stroke="black" stroke-linecap="round" stroke-linejoin="round"/>
<path d="M13.9767 21.9861V25.421C13.9767 26.776 16.1886 27.8744 18.9171 27.8744C21.6456 27.8744 23.8575 26.776 23.8575 25.421C23.8575 24.6184 23.8575 21.9861 23.8575 21.9861" fill="white"/>
<path d="M13.9767 21.9861V25.421C13.9767 26.776 16.1886 27.8744 18.9171 27.8744C21.6456 27.8744 23.8575 26.776 23.8575 25.421C23.8575 24.6184 23.8575 21.9861 23.8575 21.9861" stroke="black" stroke-linecap="round" stroke-linejoin="round"/>
<path d="M13.9767 18.5513V21.9861C13.9767 23.3411 16.1886 24.4396 18.9171 24.4396C21.6456 24.4396 23.8575 23.3411 23.8575 21.9861C23.8575 21.1836 23.8575 18.5513 23.8575 18.5513" fill="white"/>
<path d="M13.9767 18.5513V21.9861C13.9767 23.3411 16.1886 24.4396 18.9171 24.4396C21.6456 24.4396 23.8575 23.3411 23.8575 21.9861C23.8575 21.1836 23.8575 18.5513 23.8575 18.5513" stroke="black" stroke-linecap="round" stroke-linejoin="round"/>
<path d="M13.9767 15.1164V18.5513C13.9767 19.9063 16.1886 21.0048 18.9171 21.0048C21.6456 21.0048 23.8575 19.9063 23.8575 18.5513C23.8575 17.7487 23.8575 15.1164 23.8575 15.1164" fill="white"/>
<path d="M13.9767 15.1164V18.5513C13.9767 19.9063 16.1886 21.0048 18.9171 21.0048C21.6456 21.0048 23.8575 19.9063 23.8575 18.5513C23.8575 17.7487 23.8575 15.1164 23.8575 15.1164" stroke="black" stroke-linecap="round" stroke-linejoin="round"/>
<path d="M23.8574 25.421V28.8558C23.8574 30.2108 26.0694 31.3093 28.7979 31.3093C31.5264 31.3093 33.7383 30.2108 33.7383 28.8558C33.7383 28.0532 33.7383 25.421 33.7383 25.421" fill="white"/>
<path d="M23.8574 25.421V28.8558C23.8574 30.2108 26.0694 31.3093 28.7979 31.3093C31.5264 31.3093 33.7383 30.2108 33.7383 28.8558C33.7383 28.0532 33.7383 25.421 33.7383 25.421" stroke="black" stroke-linecap="round" stroke-linejoin="round"/>
<path d="M23.8574 21.9861V25.421C23.8574 26.776 26.0694 27.8744 28.7979 27.8744C31.5264 27.8744 33.7383 26.776 33.7383 25.421C33.7383 24.6184 33.7383 21.9861 33.7383 21.9861" fill="white"/>
<path d="M23.8574 21.9861V25.421C23.8574 26.776 26.0694 27.8744 28.7979 27.8744C31.5264 27.8744 33.7383 26.776 33.7383 25.421C33.7383 24.6184 33.7383 21.9861 33.7383 21.9861" stroke="black" stroke-linecap="round" stroke-linejoin="round"/>
<path d="M18.917 17.5699C21.6455 17.5699 23.8574 16.4714 23.8574 15.1164C23.8574 13.7614 21.6455 12.663 18.917 12.663C16.1885 12.663 13.9766 13.7614 13.9766 15.1164C13.9766 16.4714 16.1885 17.5699 18.917 17.5699Z" fill="white" stroke="black" stroke-linecap="round" stroke-linejoin="round"/>
<path d="M28.7979 24.4396C31.5264 24.4396 33.7383 23.3411 33.7383 21.9861C33.7383 20.6311 31.5264 19.5327 28.7979 19.5327C26.0693 19.5327 23.8574 20.6311 23.8574 21.9861C23.8574 23.3411 26.0693 24.4396 28.7979 24.4396Z" fill="white" stroke="black" stroke-linecap="round" stroke-linejoin="round"/>
</svg>
