<svg width="17" height="17" viewBox="0 0 17 17" fill="none" xmlns="http://www.w3.org/2000/svg">
<path d="M0 0H17V17H0V0Z" fill="white" fill-opacity="0.01"/>
<path d="M8.49916 14.5714C10.1757 14.5714 11.6936 13.8919 12.7923 12.7932C13.891 11.6944 14.5706 10.1766 14.5706 8.50002C14.5706 6.82345 13.891 5.3056 12.7923 4.20687C11.6936 3.10816 10.1757 2.42859 8.49916 2.42859C6.8226 2.42859 5.30474 3.10816 4.20601 4.20687C3.1073 5.3056 2.42773 6.82345 2.42773 8.50002C2.42773 10.1766 3.1073 11.6944 4.20601 12.7932C5.30474 13.8919 6.8226 14.5714 8.49916 14.5714Z" fill="#E0E1E2"/>
<path fill-rule="evenodd" clip-rule="evenodd" d="M8.4987 12.2946C8.9877 12.2946 9.38411 11.8982 9.38411 11.4092C9.38411 10.9202 8.9877 10.5238 8.4987 10.5238C8.0097 10.5238 7.61328 10.9202 7.61328 11.4092C7.61328 11.8982 8.0097 12.2946 8.4987 12.2946Z" fill="white"/>
<path d="M8.53125 5.88501L8.53125 9.12311" stroke="white" stroke-width="1.5" stroke-linecap="round" stroke-linejoin="round"/>
</svg>
