<svg width="40" height="40" viewBox="0 0 40 40" fill="none" xmlns="http://www.w3.org/2000/svg">
<path d="M32 20V35H8V20" stroke="#393F44" stroke-width="1.2" stroke-linecap="round" stroke-linejoin="round"/>
<path d="M35 12.5H5V20H35V12.5Z" fill="#77ABF8" stroke="#393F44" stroke-width="1.2" stroke-linecap="round" stroke-linejoin="round"/>
<path d="M20 35V12.5" stroke="#393F44" stroke-width="1.2" stroke-linecap="round" stroke-linejoin="round"/>
<path d="M20 12.5H13.25C12.2554 12.5 11.3016 12.1049 10.5983 11.4017C9.89509 10.6984 9.5 9.74456 9.5 8.75C9.5 7.75544 9.89509 6.80161 10.5983 6.09835C11.3016 5.39509 12.2554 5 13.25 5C18.5 5 20 12.5 20 12.5Z" stroke="#393F44" stroke-width="1.2" stroke-linecap="round" stroke-linejoin="round"/>
<path d="M20 12.5H26.75C27.7446 12.5 28.6984 12.1049 29.4016 11.4017C30.1049 10.6984 30.5 9.74456 30.5 8.75C30.5 7.75544 30.1049 6.80161 29.4016 6.09835C28.6984 5.39509 27.7446 5 26.75 5C21.5 5 20 12.5 20 12.5Z" stroke="#393F44" stroke-width="1.2" stroke-linecap="round" stroke-linejoin="round"/>
</svg>
