<svg width="18" height="18" viewBox="0 0 18 18" fill="none" xmlns="http://www.w3.org/2000/svg">
<path d="M10.5707 13.5625V13.875C10.5707 15.0326 9.65919 16 8.5 16C7.34081 16 6.42931 15.0326 6.42931 13.875V13.5625H3.78818C2.99952 13.5625 2.50421 12.898 2.50003 12.2532L2.50003 12.2532C2.49804 11.9429 2.60512 11.6251 2.83969 11.3644L2.83977 11.3643C2.87212 11.3283 2.905 11.2925 2.93825 11.2563C3.16397 11.0102 3.4068 10.7455 3.61912 10.3009C3.86172 9.79292 4.07341 9.02202 4.07341 7.78125C4.07341 5.71667 5.38559 4.02625 7.21478 3.45648V3.3125C7.21478 2.60395 7.77427 2 8.5 2C9.22573 2 9.78522 2.60395 9.78522 3.3125V3.45648C11.6144 4.02625 12.9266 5.71667 12.9266 7.78125C12.9266 9.02202 13.1383 9.79292 13.3809 10.3009C13.5932 10.7455 13.836 11.0102 14.0618 11.2563C14.095 11.2925 14.1279 11.3283 14.1602 11.3643M10.5707 13.5625L13.7886 11.6988M10.5707 13.5625H13.2118C14.0002 13.5625 14.4962 12.8982 14.5 12.2529M10.5707 13.5625L14 12.25M14.1602 11.3643L13.7886 11.6988M14.1602 11.3643C14.1602 11.3642 14.1601 11.3642 14.16 11.3641L13.7886 11.6988M14.1602 11.3643C14.395 11.625 14.5019 11.9431 14.5 12.2529M13.7886 11.6988C13.9359 11.8623 14.0012 12.0583 14 12.25M14.5 12.2529L14 12.25M14.5 12.2529C14.5 12.253 14.5 12.2531 14.5 12.2532L14 12.25" stroke="#666666"/>
<circle cx="13" cy="6" r="2" fill="#197CFF"/>
</svg>
