<svg width="24" height="24" viewBox="0 0 24 24" fill="none" xmlns="http://www.w3.org/2000/svg">
<path fill-rule="evenodd" clip-rule="evenodd" d="M8.90079 8.15076C8.90079 6.68681 10.0876 5.50005 11.5515 5.50005C13.0155 5.50005 14.2022 6.68681 14.2022 8.15076C14.2022 9.61471 13.0155 10.8015 11.5515 10.8015C10.0876 10.8015 8.90079 9.61471 8.90079 8.15076ZM11.5515 4.00005C9.25913 4.00005 7.40079 5.85838 7.40079 8.15076C7.40079 10.4431 9.25913 12.3015 11.5515 12.3015C13.8439 12.3015 15.7022 10.4431 15.7022 8.15076C15.7022 5.85838 13.8439 4.00005 11.5515 4.00005ZM8.15071 14.2022C7.04988 14.2022 5.99413 14.6395 5.21572 15.4179C4.43731 16.1963 4 17.2521 4 18.3529V20.0533C4 20.4675 4.33579 20.8033 4.75 20.8033C5.16421 20.8033 5.5 20.4675 5.5 20.0533V18.3529C5.5 17.6499 5.77927 16.9757 6.27638 16.4786C6.77348 15.9815 7.4477 15.7022 8.15071 15.7022H14.9521C15.6552 15.7022 16.3294 15.9815 16.8265 16.4786C17.3236 16.9757 17.6029 17.6499 17.6029 18.3529V20.0533C17.6029 20.4675 17.9386 20.8033 18.3529 20.8033C18.7671 20.8033 19.1029 20.4675 19.1029 20.0533V18.3529C19.1029 17.2521 18.6655 16.1963 17.8871 15.4179C17.1087 14.6395 16.053 14.2022 14.9521 14.2022H8.15071Z" fill="#222222"/>
</svg>
