<svg width="24" height="24" viewBox="0 0 24 24" fill="none" xmlns="http://www.w3.org/2000/svg">
<path fill-rule="evenodd" clip-rule="evenodd" d="M3 5.75003C3 5.33582 3.33579 5.00003 3.75 5.00003H19.7515C20.1657 5.00003 20.5015 5.33582 20.5015 5.75003C20.5015 6.16424 20.1657 6.50003 19.7515 6.50003H3.75C3.33579 6.50003 3 6.16424 3 5.75003ZM3 12.0055C3 11.5912 3.33579 11.2555 3.75 11.2555H19.7515C20.1657 11.2555 20.5015 11.5912 20.5015 12.0055C20.5015 12.4197 20.1657 12.7555 19.7515 12.7555H3.75C3.33579 12.7555 3 12.4197 3 12.0055ZM3.75 17.511C3.33579 17.511 3 17.8468 3 18.261C3 18.6752 3.33579 19.011 3.75 19.011H19.7515C20.1657 19.011 20.5015 18.6752 20.5015 18.261C20.5015 17.8468 20.1657 17.511 19.7515 17.511H3.75Z" fill="#222222"/>
</svg>
