<svg width="15" height="15" viewBox="0 0 15 15" fill="none" xmlns="http://www.w3.org/2000/svg">
<g clip-path="url(#clip0_1_2308)">
<path d="M9.93588 1.32483L7.49999 2.5499L5.06409 1.32483L7.49999 5.95446L9.93588 1.32483Z" fill="#FFB71B"/>
<path d="M10.805 4.88723L12.5429 4.16072V1.71057L9.52299 3.00687L7.84204 6.16927C8.48871 6.24382 9.08237 6.56286 9.50138 7.06102C9.92039 7.55917 10.133 8.19872 10.0957 8.8486C10.0584 9.49847 9.77389 10.1095 9.30058 10.5564C8.82728 11.0033 8.20098 11.2522 7.55004 11.2522C6.89909 11.2522 6.2728 11.0033 5.79949 10.5564C5.32619 10.1095 5.04172 9.49847 5.00438 8.8486C4.96705 8.19872 5.17964 7.55917 5.59865 7.06102C6.01766 6.56286 6.61133 6.24382 7.25799 6.16927L5.57709 3.00687L2.57141 1.71057V4.16072L4.33778 4.88723C3.5717 5.55686 3.02817 6.44427 2.77973 7.43097C2.53129 8.41766 2.58977 9.45665 2.9474 10.4092C3.30504 11.3618 3.94478 12.1826 4.7812 12.762C5.61761 13.3414 6.61089 13.6518 7.62838 13.6518C8.64586 13.6518 9.63914 13.3414 10.4756 12.762C11.312 12.1826 11.9517 11.3618 12.3093 10.4092C12.667 9.45665 12.7255 8.41766 12.4771 7.43097C12.2286 6.44427 11.6851 5.55686 10.919 4.88723H10.805Z" fill="#FFB71B"/>
</g>
<defs>
<clipPath id="clip0_1_2308">
<rect width="10" height="12.3504" fill="white" transform="translate(2.5 1.32483)"/>
</clipPath>
</defs>
</svg>
