<svg width="13" height="13" viewBox="0 0 13 13" fill="none" xmlns="http://www.w3.org/2000/svg">
<path d="M6.50014 12.5714C8.1767 12.5714 9.69456 11.8919 10.7933 10.7931C11.892 9.69442 12.5716 8.17656 12.5716 6.5C12.5716 4.82344 11.892 3.30558 10.7933 2.20685C9.69456 1.10814 8.1767 0.428572 6.50014 0.428572C4.82358 0.428572 3.30572 1.10814 2.20699 2.20685C1.10828 3.30558 0.428711 4.82344 0.428711 6.5C0.428711 8.17656 1.10828 9.69442 2.20699 10.7931C3.30572 11.8919 4.82358 12.5714 6.50014 12.5714Z" fill="#E0E1E2"/>
<path fill-rule="evenodd" clip-rule="evenodd" d="M6.49967 10.2946C6.98867 10.2946 7.38509 9.89822 7.38509 9.40922C7.38509 8.92022 6.98867 8.5238 6.49967 8.5238C6.01068 8.5238 5.61426 8.92022 5.61426 9.40922C5.61426 9.89822 6.01068 10.2946 6.49967 10.2946Z" fill="white"/>
<path d="M6.53125 3.88501L6.53125 7.12311" stroke="white" stroke-width="1.5" stroke-linecap="round" stroke-linejoin="round"/>
</svg>
