<svg width="12" height="12" viewBox="0 0 12 12" fill="none" xmlns="http://www.w3.org/2000/svg">
<path d="M10.0003 4.50006H5.50025C4.94796 4.50006 4.50024 4.94778 4.50024 5.50006V10.0001C4.50024 10.5524 4.94796 11.0001 5.50025 11.0001H10.0003C10.5525 11.0001 11.0003 10.5524 11.0003 10.0001V5.50006C11.0003 4.94778 10.5525 4.50006 10.0003 4.50006Z" stroke="#BFC3C7" stroke-linecap="round" stroke-linejoin="round"/>
<path d="M2.5 7.50001H2C1.73478 7.50001 1.48043 7.39466 1.29289 7.20712C1.10536 7.01958 1 6.76523 1 6.50001V2C1 1.73478 1.10536 1.48043 1.29289 1.29289C1.48043 1.10536 1.73478 1 2 1H6.50001C6.76523 1 7.01958 1.10536 7.20712 1.29289C7.39466 1.48043 7.50001 1.73478 7.50001 2V2.5" stroke="#BFC3C7" stroke-linecap="round" stroke-linejoin="round"/>
</svg>
