<svg width="15" height="15" viewBox="0 0 15 15" fill="none" xmlns="http://www.w3.org/2000/svg">
<path d="M1 11.8333V7.5C1 5.77609 1.68482 4.12279 2.90381 2.90381C4.12279 1.68482 5.77609 1 7.5 1C9.22391 1 10.8772 1.68482 12.0962 2.90381C13.3152 4.12279 14 5.77609 14 7.5V11.8333" stroke="black" stroke-width="1.5" stroke-linecap="round" stroke-linejoin="round"/>
<path d="M14 12.5558C14 12.9388 13.8478 13.3062 13.5769 13.5771C13.306 13.848 12.9386 14.0002 12.5556 14.0002H11.8333C11.4502 14.0002 11.0828 13.848 10.812 13.5771C10.5411 13.3062 10.3889 12.9388 10.3889 12.5558V10.3891C10.3889 10.006 10.5411 9.6386 10.812 9.36771C11.0828 9.09682 11.4502 8.94464 11.8333 8.94464H14V12.5558ZM1 12.5558C1 12.9388 1.15218 13.3062 1.42307 13.5771C1.69395 13.848 2.06135 14.0002 2.44444 14.0002H3.16667C3.54976 14.0002 3.91716 13.848 4.18804 13.5771C4.45893 13.3062 4.61111 12.9388 4.61111 12.5558V10.3891C4.61111 10.006 4.45893 9.6386 4.18804 9.36771C3.91716 9.09682 3.54976 8.94464 3.16667 8.94464H1V12.5558Z" stroke="black" stroke-width="1.5" stroke-linecap="round" stroke-linejoin="round"/>
</svg>
