<svg width="36" height="29" viewBox="0 0 36 29" fill="none" xmlns="http://www.w3.org/2000/svg">
<path d="M14.2326 0.566895C10.3186 0.566895 7.11628 4.53731 7.11628 9.42943C7.11628 14.3215 10.3186 18.292 14.2326 18.292C18.1465 18.292 21.3488 14.3215 21.3488 9.42943C21.3488 4.53731 18.1465 0.566895 14.2326 0.566895ZM6.79605 18.292C3.02442 18.4692 0 21.5534 0 25.382V28.927H28.4651V25.382C28.4651 21.5534 25.4763 18.4692 21.6691 18.292C19.7477 20.4544 17.1147 21.837 14.2326 21.837C11.3505 21.837 8.71744 20.4544 6.79605 18.292Z" fill="url(#paint0_linear_1_1030)"/>
<path d="M25.9896 4.91929C22.1865 4.91929 19.0928 8.00161 19.0928 11.7907C19.0928 15.5798 22.1865 18.6621 25.9896 18.6621C27.1523 18.6621 28.2952 18.3873 29.2607 17.8572C29.3381 17.9499 29.4238 18.0354 29.5169 18.1124L31.4874 20.0757C31.6694 20.2797 31.8913 20.4444 32.1394 20.5599C32.3876 20.6754 32.6569 20.7391 32.9307 20.7471C33.2045 20.7551 33.477 20.7073 33.7316 20.6066C33.9861 20.5059 34.2174 20.3544 34.4111 20.1614C34.6047 19.9685 34.7568 19.7381 34.8579 19.4845C34.959 19.2308 35.0069 18.9593 34.9989 18.6865C34.9908 18.4137 34.9269 18.1455 34.811 17.8982C34.6951 17.6509 34.5297 17.4299 34.325 17.2486L32.3545 15.2853C32.2585 15.1897 32.1528 15.1041 32.0392 15.0301C32.5712 14.0681 32.9062 12.949 32.9062 11.7711C32.9062 7.98198 29.8125 4.89966 26.0093 4.89966L25.9896 4.91929ZM25.9896 6.88255C28.7287 6.88255 30.916 9.06178 30.916 11.7907C30.916 13.0865 30.443 14.2841 29.6154 15.1675C29.5957 15.1872 29.576 15.2068 29.5563 15.2264C29.4632 15.3035 29.3775 15.3889 29.3001 15.4816C28.4331 16.267 27.2508 16.7185 25.9699 16.7185C23.2309 16.7185 21.0436 14.5393 21.0436 11.8103C21.0436 9.08141 23.2309 6.90219 25.9699 6.90219L25.9896 6.88255Z" fill="url(#paint1_linear_1_1030)"/>
<path d="M26.9896 3.92295C23.1865 3.92295 20.0928 7.00528 20.0928 10.7944C20.0928 14.5835 23.1865 17.6658 26.9896 17.6658C28.1523 17.6658 29.2952 17.3909 30.2607 16.8609C30.3381 16.9536 30.4238 17.039 30.5169 17.1161L32.4874 19.0793C32.6694 19.2833 32.8913 19.4481 33.1394 19.5636C33.3876 19.679 33.6569 19.7427 33.9307 19.7508C34.2045 19.7588 34.477 19.711 34.7316 19.6103C34.9861 19.5095 35.2174 19.3581 35.4111 19.1651C35.6047 18.9721 35.7568 18.7418 35.8579 18.4881C35.959 18.2345 36.0069 17.9629 35.9989 17.6902C35.9908 17.4174 35.9269 17.1491 35.811 16.9019C35.6951 16.6546 35.5297 16.4335 35.325 16.2522L33.3545 14.289C33.2585 14.1933 33.1528 14.1078 33.0392 14.0338C33.5712 13.0718 33.9062 11.9527 33.9062 10.7747C33.9062 6.98564 30.8125 3.90332 27.0093 3.90332L26.9896 3.92295ZM26.9896 5.88622C29.7287 5.88622 31.916 8.06544 31.916 10.7944C31.916 12.0901 31.443 13.2877 30.6154 14.1712C30.5957 14.1908 30.576 14.2105 30.5563 14.2301C30.4632 14.3071 30.3775 14.3926 30.3001 14.4853C29.4331 15.2706 28.2508 15.7222 26.9699 15.7222C24.2309 15.7222 22.0436 13.5429 22.0436 10.814C22.0436 8.08507 24.2309 5.90585 26.9699 5.90585L26.9896 5.88622Z" fill="url(#paint2_linear_1_1030)"/>
<defs>
<linearGradient id="paint0_linear_1_1030" x1="14.2326" y1="0.566895" x2="14.2326" y2="28.927" gradientUnits="userSpaceOnUse">
<stop stop-color="#4B7BF5"/>
<stop offset="0.9998" stop-color="#73A1FF"/>
<stop offset="0.9999" stop-color="#010103" stop-opacity="0.0104167"/>
<stop offset="1" stop-opacity="0"/>
</linearGradient>
<linearGradient id="paint1_linear_1_1030" x1="22.4998" y1="-0.429425" x2="40.9371" y2="16.5758" gradientUnits="userSpaceOnUse">
<stop stop-color="#E6F2FF"/>
<stop offset="1" stop-color="#A3C7FF"/>
</linearGradient>
<linearGradient id="paint2_linear_1_1030" x1="23.4998" y1="-1.42576" x2="41.9371" y2="15.5794" gradientUnits="userSpaceOnUse">
<stop stop-color="#A3C7FF"/>
<stop offset="1" stop-color="#E6F2FF"/>
</linearGradient>
</defs>
</svg>
