<svg width="24" height="24" viewBox="0 0 24 24" fill="none" xmlns="http://www.w3.org/2000/svg">
<path d="M19.9999 6.37347V10.7371H15.6362" stroke="#393F44" stroke-width="1.5" stroke-linecap="round" stroke-linejoin="round"/>
<path d="M4 18.0098V13.6462H8.36363" stroke="#393F44" stroke-width="1.5" stroke-linecap="round" stroke-linejoin="round"/>
<path d="M5.82545 10.0099C6.1943 8.96752 6.82118 8.03561 7.6476 7.30108C8.47403 6.56654 9.47305 6.05333 10.5515 5.80933C11.6299 5.56532 12.7525 5.59848 13.8147 5.9057C14.8768 6.21292 15.8438 6.7842 16.6254 7.56622L20 10.7371M4 13.6462L7.37454 16.8171C8.15617 17.5991 9.12317 18.1704 10.1853 18.4776C11.2474 18.7849 12.3701 18.818 13.4485 18.574C14.5269 18.33 15.5259 17.8168 16.3524 17.0823C17.1788 16.3477 17.8057 15.4158 18.1745 14.3735" stroke="#393F44" stroke-width="1.5" stroke-linecap="round" stroke-linejoin="round"/>
</svg>
