<svg width="360" height="190" viewBox="0 0 360 190" fill="none" xmlns="http://www.w3.org/2000/svg">
<path d="M359.993 189.484V0.415039C352.346 7.77531 343.721 13.9022 334.978 18.7859C326.672 23.4208 312.401 29.0704 303.302 29.8561C298.404 30.2838 293.507 29.7964 288.602 30.3435C283.919 30.8607 279.273 31.8752 274.716 33.3274C263.409 36.9478 258.304 40.9164 248.642 49.0624C245.434 51.7678 241.633 53.7571 238.054 55.5375C233.289 57.9047 228.369 59.7249 223.346 61.0079C216.536 62.7386 209.512 63.5443 202.569 63.1265C196.486 62.7585 190.447 61.7042 184.357 61.4257C175.199 61.0079 166.003 61.366 156.904 62.7485C146.124 64.3897 135.232 67.2642 125.184 72.5656C123.658 73.3712 122.087 74.1769 120.664 75.261C120.553 75.3505 120.442 75.45 120.331 75.5395C120.212 75.629 120.094 75.7285 119.975 75.818C119.931 75.8578 119.901 75.8777 119.879 75.8976C119.849 75.9175 119.797 75.9572 119.716 76.007C118.553 76.8325 117.36 77.6083 116.145 78.3145C104.912 84.8791 91.7153 87.4054 79.2599 87.9425C68.5901 88.4001 58.0538 86.4705 47.3988 86.4208C39.0705 86.381 30.7051 87.2563 22.5621 89.5538C14.7969 91.742 6.58708 95.1337 0 101.032V189.514H360L359.993 189.484Z" fill="#2C3DB8"/>
</svg>
